<svg
    xmlns="http://www.w3.org/2000/svg"
    viewBox="0 0 1135 1297"
    id="vector">
    <path
        id="path"
        d="M 571 0 C 574.5 1.4 577.7 3.2 581 5.1 L 583.9 6.7 L 593 12 L 596 13.7 L 607.9 20.6 L 629.5 33 L 663.3 52.4 L 671.2 57 L 673.6 58.4 L 677.9 60.9 C 684 64.5 684 64.5 686 67 C 686.4 69.4 686.4 69.4 686.4 72.4 L 686.4 75.8 L 686.4 79.5 L 686.4 83.4 L 686.4 94.1 L 686.4 103 L 686.4 124.1 L 686.5 145.8 L 686.6 164.5 L 686.6 175.6 L 686.6 188 L 686.7 191.7 C 686.6 199.8 686.6 199.8 684.6 202.6 C 683 204 683 204 679.9 205.8 L 677.1 207.6 L 674.2 209.2 L 670.9 211.1 L 667.3 213.1 L 663.6 215.2 L 655.8 219.6 L 638 230 L 631 234 L 627.5 236 L 618.5 241.1 L 614.9 243.2 L 606 248.3 L 589.9 257.5 L 587.1 259.1 L 582 262 C 574.4 266.4 566.7 270.5 558.9 274.7 C 548.2 280.5 537.6 286.5 527.1 292.6 L 505.5 305 L 481 319 L 453.4 334.8 L 432 347 L 404.4 362.8 L 383 375 L 355.4 390.8 L 334 403 L 306.4 418.8 L 282.1 432.8 L 256.6 447.3 L 253.7 448.9 L 251.1 450.3 L 248 452 L 245.6 453 C 242.6 454.4 240.4 455.7 238 458 C 236.5 463 236.7 467.9 236.8 473 L 236.8 477.7 L 236.9 490.5 L 236.9 504.3 L 237 528.3 L 237.1 562.9 L 237.3 619.1 L 237.5 673.7 L 237.5 677.1 L 237.5 694 L 238 834 L 240.3 835.3 L 264.1 848.9 L 266 850 L 495.3 981 L 498.8 983 L 507.5 988 L 523.5 997.1 L 527.2 999.2 L 536.1 1004.3 L 551.8 1013.5 L 554.4 1015.1 L 559.1 1018 C 562.2 1019.9 564.2 1021 567.8 1021.1 C 572.4 1019.5 576.5 1017.2 580.8 1014.8 L 583.7 1013.2 C 591.8 1008.7 599.8 1004 607.7 999.4 L 629.5 987 L 654 973 L 681.6 957.2 L 703 945 L 730.6 929.2 L 752 917 L 779.6 901.2 L 801 889 L 828.6 873.2 L 852.9 859.2 L 878.4 844.7 L 881.3 843.1 L 883.9 841.7 L 887 840 L 889.4 839.3 C 892.9 838 894.6 836.9 897 834 C 899.1 826.8 898.3 818.7 898.1 811.3 L 898.1 804.2 L 898 784.9 L 897.9 766.8 L 897.7 731 L 897.5 696.2 L 897.5 694 L 897.5 683.2 L 897 594 L 886.1 600 L 882.4 602 L 857.8 616 L 833.5 630 L 806.2 645.6 L 783.2 658.9 L 781.4 659.9 L 772.5 665 L 756.7 674 L 748 679 L 744.5 681 L 681.5 717 L 679.7 718 L 676.2 720 L 667.5 725 L 651.6 734.1 L 642.7 739.2 L 640.9 740.2 L 616.7 754.2 L 582.6 773.6 C 580.879 774.563 579.178 775.564 577.5 776.6 C 573.5 779.1 570 781 565.1 780.6 C 560.3 779.4 556.2 776.5 552 773.9 L 545.6 770 L 542.3 768 C 537.1 764.9 531.8 762 526.5 759 L 499 743.3 L 476.8 730.7 C 452 716.8 452 716.8 449 713 C 448.6 710.6 448.6 710.6 448.6 707.6 L 448.6 704.2 L 448.6 700.5 L 448.6 696.6 L 448.6 685.9 L 448.6 677 L 448.6 655.9 L 448.5 634.2 L 448.4 615.5 L 448.4 604.4 L 448.4 592 L 448.3 588.3 C 448.4 580.2 448.4 580.2 450.4 577.4 C 452 576 452 576 455.1 574.2 L 457.9 572.4 L 460.8 570.8 L 464.1 568.9 L 467.7 566.9 L 471.4 564.8 L 479.2 560.4 L 497 550 L 504 546 L 507.5 544 L 516.3 539 L 519.8 537 L 528.5 532 L 544.6 522.8 L 577.8 504.3 C 584.9 500.6 591.8 496.5 598.7 492.4 L 620.5 480 L 645 466 L 672.6 450.2 L 694 438 L 721.6 422.2 L 743 410 L 770.6 394.2 L 792 382 L 819.6 366.2 L 841 354 L 868.6 338.2 L 890 326 L 917.6 310.2 L 939 298 L 963.5 284 L 994.5 266.3 L 997.2 264.7 C 999.2 263.5 1001.1 262.3 1003.1 261.1 C 1013 254.9 1013 254.9 1018 255.4 C 1022.7 256.8 1026.8 259.5 1031 262.1 L 1037.4 266 L 1040.7 268 C 1045.9 271.1 1051.2 274 1056.5 277 L 1084 292.7 L 1106.1 305.3 L 1127 317.2 L 1128.8 318.3 C 1131.7 320 1133.1 321.2 1135 324.1 C 1135.3 326.2 1135.3 326.2 1135.3 328.6 L 1135.3 331.4 L 1135.3 334.5 L 1135.3 337.8 L 1135.3 348.8 L 1135.3 356.8 L 1135.3 374.1 L 1135.3 399.9 L 1135.3 451.3 L 1135.3 454 L 1135.3 456.7 L 1135.3 486.3 L 1135.3 575.5 L 1135.3 578.4 L 1135.3 590 L 1135.3 598.7 L 1135.3 601.6 L 1135.4 692.1 L 1135.5 793.7 L 1135.5 804.5 L 1135.5 807.2 L 1135.5 850.2 L 1135.5 893.3 L 1135.5 919 L 1135.5 936.1 L 1135.5 945.9 L 1135.5 956.4 L 1135.5 959.5 C 1135.4 964 1135.3 967.2 1132.5 970.8 C 1130 973.1 1127.8 974.8 1124.8 976.4 L 1121.8 978 L 1118.6 979.7 L 1111.8 983.4 L 1108.3 985.3 C 1103.1 988.2 1098 991.2 1092.9 994.2 L 1065.3 1010 L 1044 1022 L 1016.4 1037.8 L 995 1050 L 967.4 1065.8 L 946 1078 L 918.4 1093.8 L 897 1106 L 869.4 1121.8 L 848 1134 L 820.4 1149.8 L 799 1162 L 771.4 1177.8 L 750 1190 L 722.4 1205.8 L 701 1218 L 673.4 1233.8 L 652 1246 L 627.5 1260 L 599.4 1276.1 L 581.7 1286.3 L 579.8 1287.4 L 575 1290 L 573.1 1291.2 C 568.6 1292.9 564.9 1292.8 560.5 1290.9 C 557.6 1289.3 554.8 1287.6 552.1 1285.9 L 545.7 1282 L 542.4 1280 C 537.2 1276.9 531.9 1274 526.6 1271 L 499.1 1255.2 L 477.5 1243 L 450 1227.2 L 428.5 1215 L 401 1199.2 L 379.5 1187 L 352 1171.2 L 330.5 1159 L 303 1143.2 L 281.5 1131 L 254 1115.2 L 232.5 1103 L 205 1087.2 L 183.5 1075 L 156 1059.2 L 134.5 1047 L 107 1031.2 L 85.5 1019 L 58 1003.3 L 36.2 990.9 L 12.6 977.3 L 10.1 975.8 L 7.8 974.4 L 5.8 973.2 C 3.9 971.9 2.5 970.8 1 969 C 0.6 966.9 0.6 966.9 0.6 964.5 L 0.6 961.7 L 0.6 958.6 L 0.6 955.3 L 0.6 944.2 L 0.6 936.2 L 0.6 918.8 L 0.6 892.9 L 0.6 843.9 L 0.5 806 L 0.5 795.1 L 0.5 792.4 L 0.5 716.3 L 0.5 713.4 L 0.5 698.9 L 0.5 696 L 0.5 690.2 L 0.4 599.3 L 0.3 497.2 L 0.3 486.3 L 0.3 483.6 L 0.3 440.4 L 0.3 397 L 0.3 371.2 L 0.3 354 L 0.3 344.2 L 0.3 333.6 L 0.3 330.5 C 0.4 323.8 0.4 323.8 2.4 321.2 C 3.9 319.9 3.9 319.9 7 318 L 9.8 316.2 L 12.7 314.6 L 16 312.7 L 19.6 310.7 L 23.3 308.6 L 31.1 304.2 L 49 294 L 56 290 L 59.5 288 L 486.5 44 L 488.3 43 L 491.8 41 L 500.5 36 L 516.4 26.9 L 521.8 23.8 L 528.8 19.8 L 545.9 9.8 L 549.2 7.8 L 555.3 4.1 C 560.4 1 564.8 -1.6 571 0 Z M 559.5 16.9 L 556.1 18.8 L 552.5 21 L 548.7 23.2 L 540.9 27.8 L 523 38 L 516 42 L 512.5 44 L 510.7 45 L 85.5 288 L 83.7 289 L 80.2 291 L 71.5 296 L 55.3 305.3 L 47.8 309.6 L 42.6 312.6 L 36.2 316.3 L 29.6 320.1 L 26.3 322 L 23.3 323.7 L 21 325 L 21 327 L 23.1 328.2 L 33.3 334 L 35.2 335.1 L 41.1 338.5 L 43.1 339.7 L 54.4 346.2 L 59.6 349.2 L 66.5 353.1 L 82.7 362.4 L 90.2 366.7 L 95.4 369.7 L 98.7 371.6 L 101.9 373.4 C 104.1 374.7 106.2 375.9 108.3 377.3 L 111.5 379.3 L 114.3 381.1 C 117.8 382.6 119.5 382.3 123.1 381.3 C 125.6 380.2 125.6 380.2 128.1 378.6 L 130.9 376.9 L 133.9 375.1 L 140.4 371.2 L 143.8 369.2 C 149 366.1 154.3 363.2 159.6 360.2 L 184.1 346.2 L 211.7 330.4 L 233 318 L 260.6 302.2 L 282 290 L 309.6 274.2 L 331 262 L 358.6 246.2 L 380 234 L 407.6 218.2 L 429 206 L 456.6 190.2 L 478 178 L 505.6 162.2 L 527 150 C 541.9 141.2 557 132.8 572.2 124.5 C 586.6 116.6 600.8 108.5 614.9 100.3 L 636.9 87.8 L 659 75.3 L 661.2 74.1 C 662.8 73.2 664.4 72.1 666 71.1 L 666 69.1 L 663.9 67.9 L 634.4 51 L 632.6 50 L 627.4 47 L 620.5 43.1 L 604.3 33.8 L 596.8 29.5 L 591.6 26.5 L 582 21 L 580.2 20 L 574.9 17 L 571.7 15.2 C 566.6 12.9 563.9 14.2 559.4 16.9 Z M 667.8 83.8 L 664.5 85.6 L 660.9 87.6 L 659.1 88.6 L 630.9 104.7 L 606.2 118.7 C 599.2 122.6 592.2 126.7 585.3 130.8 C 579.7 134.2 574 137.4 568.1 140.3 C 560.7 143.9 553.6 148.1 546.6 152.3 L 524.5 165 L 500 179 L 472.4 194.8 L 451 207 L 423.4 222.8 L 402 235 L 374.4 250.8 L 353 263 L 328.5 277 L 301.2 292.6 L 278.2 305.9 L 276.4 306.9 L 267.5 312 L 251.7 321 L 243 326 L 239.5 328 L 204.5 348 L 202.7 349 L 199.2 351 L 190.5 356 L 172.9 366 L 139 385.4 L 133.8 388.4 L 130.7 390.2 L 128 391.8 C 126 392.9 126 392.9 124.9 394 C 124.8 396.6 124.8 399.2 124.8 401.9 L 124.8 404.4 L 124.8 413 L 124.8 419.2 L 124.8 436.2 L 124.8 454.5 L 124.8 486.2 L 124.8 519.5 L 124.8 521.6 L 124.8 532.1 L 124.8 606.5 L 124.8 678.8 L 124.8 681.1 L 124.8 703.5 L 124.8 749.1 L 124.8 751.2 L 125 891 L 131.6 887.7 L 133.5 886.8 C 139.2 883.9 144.8 880.8 150.3 877.5 L 175.9 862.8 L 200.8 848.5 L 218 838.5 L 220.3 837.2 L 222.4 836 C 224 835.1 224 835.1 225 834 C 225.1 832 225.1 829.9 225.1 827.9 L 225.1 825.9 L 225.1 819.3 L 225.1 814.6 L 225.1 804.3 L 225.1 787.5 L 225.1 766.3 L 225.1 724.6 L 225.1 718 L 225.1 708.1 L 225.1 670.6 L 225.1 667.1 L 225.1 611.5 L 225.2 554.5 L 225.2 519.3 L 225.2 495.2 L 225.2 481.3 L 225.2 468.6 L 225.2 464 L 225.2 457.7 L 225.2 454.2 C 226 451 226 451 228.4 448.7 C 231.1 446.9 233.8 445.3 236.7 443.7 L 240 441.8 L 243.6 439.8 L 247.4 437.7 L 255.2 433.3 L 273 423 L 280 419 L 283.5 417 L 320.3 396 L 323.8 394 L 332.5 389 L 348.3 379.9 L 357.2 374.8 L 359 373.8 L 383.8 359.8 L 411 344.2 L 435.7 330.2 L 457 318 L 484.6 302.2 L 506 290 L 533.6 274.3 L 555.3 261.8 C 562.978 257.283 570.781 252.981 578.7 248.9 C 586.1 245 593.4 240.8 600.6 236.5 L 622.5 224 L 653.6 206.2 L 670.7 196.4 C 672.9 195.2 672.9 195.2 674 194 C 674.1 192.5 674.1 191.1 674.1 189.6 L 674.1 186.7 L 674.1 183.5 L 674.1 180.2 L 674.1 169.2 L 674.1 161.6 L 674.1 143.6 L 674.1 123.1 L 674 81 C 671.9 81 669.6 82.8 667.8 83.8 Z M 1008.5 272.9 L 1005.1 274.8 L 1001.5 277 L 997.7 279.2 L 989.9 283.8 L 972 294 L 965 298 L 961.5 300 L 959.7 301 L 646.5 480 L 644.7 481 L 641.2 483 L 632.5 488 L 616.5 497.1 L 609.2 501.3 L 605.6 503.3 L 588.4 513.2 L 585.8 514.7 L 581.3 517.3 C 577.3 519.6 573.2 521.8 569.1 523.8 C 563.2 526.7 557.4 530 551.7 533.4 L 526.5 548 L 498.8 563.9 L 469 581 L 469 583 L 471.1 584.2 L 481.3 590 L 483.2 591.1 L 489.1 594.5 L 491.1 595.7 L 502.4 602.2 L 507.6 605.2 L 514.5 609.1 L 530.7 618.4 L 538.2 622.7 L 543.4 625.7 L 546.7 627.6 L 549.9 629.4 C 552.1 630.7 554.2 631.9 556.3 633.3 L 559.5 635.3 L 562.3 637.1 C 565.7 638.6 567.5 638.3 571.1 637.3 C 573.4 636.3 573.4 636.3 575.7 635.1 L 578.3 633.7 L 581 632.2 L 583.9 630.6 C 592 626.1 600 621.4 607.9 616.8 L 629.5 604 L 654 590 L 681.6 574.2 L 703 562 L 730.6 546.2 L 752 534 L 779.6 518.2 L 801 506 L 828.6 490.2 L 850 478 L 877.6 462.2 L 899 450 L 926.6 434.2 L 948 422 L 975.6 406.2 L 997 394 L 1024.6 378.2 L 1046 366 L 1070.5 352 L 1104.6 332.4 L 1114 327 C 1112.8 323.4 1112.2 323.3 1108.9 321.6 L 1106.3 320.2 L 1103.4 318.7 C 1095.2 314.3 1087.1 309.8 1079.1 305.1 L 1051.3 289.3 L 1035.1 280 L 1031.8 278 L 1025.5 274.2 L 1022.6 272.5 L 1020.1 271 C 1015.4 268.8 1012.5 270.4 1008.3 272.9 Z M 13 337 L 12.4 515.4 L 12.4 518.1 L 12.3 575.5 L 12.2 603.6 L 12.2 606.4 L 11.9 697.2 L 11.7 790.5 L 11.7 803.7 L 11.7 806.3 L 11.5 848 L 11.4 890 L 11.3 914.9 L 11.3 933.5 L 11.2 941 C 10.4 952.9 10.4 952.9 14.1 963.7 C 17.5 966.9 21.4 968.4 25.8 969.9 C 27.8 971 29.8 972.1 31.7 973.3 L 37.6 976.6 L 63 991 L 87.5 1005 L 115 1020.8 L 136.5 1033 L 163.8 1048.6 L 186.8 1061.9 L 188.6 1062.9 L 197.5 1068 L 213.3 1077 L 222 1082 L 225.5 1084 L 227.3 1085 L 484.6 1232 L 486.4 1233 L 489.9 1235 L 498.6 1240 L 516.3 1250.1 L 550.3 1269.5 L 553.3 1271.2 L 556 1272.7 L 558.4 1274 C 560 1275 560 1275 561.2 1274.9 L 561.9 1231.1 L 562.2 1210.8 L 562.5 1191.2 L 562.6 1183.7 C 563.6 1171.4 563.6 1171.4 560 1160.1 C 556.6 1156.9 552.7 1155.4 548.2 1153.9 C 546.211 1152.805 544.244 1151.672 542.3 1150.5 L 536.4 1147.2 L 511 1133 L 486.5 1119 L 459 1103.2 L 437.5 1091 L 410 1075.2 L 388.5 1063 L 361 1047.2 L 339.5 1035 L 312 1019.2 L 290.5 1007 L 263 991.2 L 238.3 977.2 L 217.1 965 C 208.6 960 200.1 955.2 191.5 950.4 L 162.9 934.1 L 140.8 921.5 C 117.8 908.8 117.8 908.8 114 905 C 113.8 902.2 113.7 899.6 113.8 896.8 L 113.8 894.2 L 113.8 885.4 L 113.8 879.1 L 113.8 865.3 L 113.9 842.9 L 114 818.8 L 114.1 761.2 L 114.1 754.7 L 114.1 734.8 L 114.1 687 L 114.1 684.7 L 114.3 610.6 L 114.4 534.4 L 114.4 523.6 L 114.4 521.5 L 114.5 487.4 L 114.5 453.1 L 114.6 434.5 L 114.6 417.5 L 114.6 411.3 C 115.2 401.3 115.2 401.3 111.7 392.4 C 108.2 389.4 104.2 387.7 100 386 L 94.5 382.9 L 89.1 379.9 L 65 366.1 L 33.5 348.2 L 16.1 338.3 C 14.3 336.9 14.3 336.9 13 337 Z M 1115.8 339.8 L 1112.5 341.6 L 1108.9 343.6 L 1107.1 344.6 L 1078.9 360.7 L 1057.5 373 L 1033 387 L 1005.4 402.8 L 984 415 L 956.4 430.8 L 935 443 L 907.4 458.8 L 886 471 L 858.4 486.8 L 837 499 L 812.5 513 L 785.2 528.6 L 762.2 541.9 L 760.4 542.9 L 751.5 548 L 735.7 557 L 727 562 L 723.5 564 L 632.5 616 L 630.7 617 L 627.2 619 L 618.5 624 L 602.1 633.3 L 594.4 637.7 L 590.7 639.8 L 585.6 642.7 L 582.7 644.4 L 580 646 L 576.9 647.4 C 573.7 650.3 573.6 650.7 573.3 654.7 L 573.3 660.8 L 573.3 664.1 L 573.4 675 L 573.4 682.6 L 573.5 700.5 L 573.6 720.9 L 574 763 L 580.6 759.7 L 582.5 758.8 C 588.2 755.9 593.8 752.8 599.3 749.5 L 624.5 735 L 649 721 L 673.5 707 L 700.8 691.4 L 723.8 678.1 L 725.6 677.1 L 734.5 672 L 750.3 663 L 759 658 L 762.5 656 L 797.5 636 L 799.3 635 L 802.8 633 L 811.5 628 L 827.3 619 L 863 598.5 L 900.5 577 L 916.3 568 L 925 563 L 928.5 561 L 935.5 557 L 937.3 556 L 940.8 554 L 949.5 549 L 965.4 539.9 L 970.8 536.8 L 977.8 532.8 L 994.9 522.8 L 998.2 520.8 L 1004.3 517.1 C 1009.4 514 1013 511.9 1019 512.9 C 1021.8 515.7 1021.3 517.3 1021.3 521.2 L 1021.3 523.2 L 1021.3 529.9 L 1021.3 534.7 L 1021.3 548 L 1021.3 562.3 L 1021.3 593.7 L 1021.3 613.3 L 1021.3 667.4 L 1021.3 670.9 L 1021.3 677.9 L 1021.3 681.4 L 1021.3 684.9 L 1021.4 741.5 L 1021.5 799.6 L 1021.5 832.2 L 1021.5 860 L 1021.5 874.2 L 1021.5 887.2 L 1021.5 891.9 L 1021.5 898.3 L 1021.5 901.9 C 1021 905 1021 905 1018.6 907.3 C 1015.9 909.1 1013.2 910.7 1010.3 912.3 L 1007 914.2 L 1003.4 916.2 L 999.6 918.3 L 991.8 922.7 L 974 933 L 967 937 L 963.5 939 L 898.7 976 L 895.2 978 L 886.5 983 L 870.7 992.1 L 861.8 997.2 L 860 998.2 L 835.2 1012.2 L 808 1027.8 L 783.3 1041.8 L 762 1054 L 734.4 1069.8 L 713 1082 L 685.4 1097.8 L 664 1110 L 636.4 1125.8 L 612.1 1139.8 L 586.1 1154.5 L 583.1 1156.2 L 580.5 1157.7 C 578.2 1159.1 576.1 1160.3 574.1 1162.1 C 573.5 1164.3 573.5 1164.3 573.6 1166.8 L 573.6 1169.7 L 573.6 1172.9 L 573.6 1176.2 L 573.7 1187.2 L 573.7 1194.8 L 573.8 1212.7 L 573.9 1233.1 L 574 1275 L 580.6 1271.7 L 582.5 1270.8 C 588.2 1267.9 593.8 1264.8 599.3 1261.5 L 624.5 1247 L 649 1233 L 676.6 1217.2 L 698 1205 L 725.6 1189.2 L 747 1177 L 774.6 1161.2 L 796 1149 L 823.6 1133.2 L 845 1121 L 872.6 1105.2 L 894 1093 L 921.6 1077.2 L 943 1065 L 967.5 1051 L 994.8 1035.4 L 1017.8 1022.1 L 1019.6 1021.1 L 1028.5 1016 L 1044.3 1007 L 1053 1002 L 1056.5 1000 L 1063.5 996 L 1065.3 995 L 1068.8 993 L 1077.5 988 L 1093.9 978.7 L 1101.6 974.3 L 1105.3 972.2 L 1110.4 969.3 L 1113.3 967.6 L 1116 966 L 1119.1 964.5 C 1122.3 961.7 1122.4 961.4 1122.7 957.5 C 1122.729 955.6 1122.729 953.7 1122.7 951.8 L 1122.7 948.6 L 1122.7 937.9 L 1122.7 930.2 L 1122.7 913.3 L 1122.7 888.2 L 1122.7 846 L 1122.6 804.2 L 1122.6 801.6 L 1122.6 788.4 L 1122.5 694.9 L 1122.4 604 L 1122.4 601.2 L 1122.4 573.1 L 1122.3 515.8 L 1122.3 513.1 L 1122 337 C 1119.9 337 1117.6 338.8 1115.8 339.8 Z M 1003.8 531.8 L 1000.5 533.6 L 996.9 535.6 L 995.1 536.6 L 967.1 552.6 L 943.6 566.1 L 918.7 580.4 L 916.3 581.8 C 912.9 583.6 912.9 583.6 909.9 586 C 909.78 589.165 909.713 592.332 909.7 595.5 L 909.7 598.6 L 909.6 608.8 L 909.5 616.1 L 909.1 682.7 L 909.1 691.6 L 909.1 693.8 L 908.8 729.7 L 908.6 766.5 L 908.5 787.2 L 908.4 806.7 L 908.3 813.8 C 907.5 825.2 907.5 825.2 911.1 835.6 C 914.6 838.8 918.5 840.3 922.8 841.9 C 924.8 843 926.8 844.1 928.7 845.3 L 934.6 848.6 L 959.6 862.9 L 984.8 877.5 L 988.4 879.6 L 993.5 882.5 L 996.4 884.2 C 1000.8 886.6 1005.3 888.8 1009.7 891 L 1010 529 C 1007.9 529 1005.6 530.8 1003.8 531.8 Z M 461 593 L 460.3 636.8 L 460 657.1 L 459.7 676.7 L 459.6 684.2 C 458.6 696.5 458.6 696.5 462.2 707.8 C 465.6 711 469.5 712.5 474 714 C 475.8 715 477.7 716 479.5 717.1 L 484.9 720.1 L 509 733.9 L 540.5 751.8 L 557.9 761.7 C 559.9 763 559.9 763 561.2 763 L 561.9 719.2 L 562.2 698.9 L 562.5 679.3 L 562.6 671.8 C 563.6 659.5 563.6 659.5 560 648.2 C 556.6 645 552.6 643.6 548.2 642 C 546 640.8 543.9 639.6 541.8 638.3 L 535.1 634.5 L 531.4 632.4 L 523.9 628.1 L 509.6 620 L 502.7 616.1 L 486.2 606.7 L 478.4 602.2 L 474.7 600.1 L 469.5 597.1 L 466.5 595.4 C 464 594 464 594 461 593.1 Z M 223.5 848.9 L 220.1 850.8 L 216.5 853 L 212.7 855.2 L 204.9 859.8 L 187 870 L 180.1 874 L 167.4 881.3 L 159.9 885.6 L 154.7 888.6 L 148.3 892.3 L 141.7 896.1 L 138.4 898 L 135.4 899.7 L 133 901 L 133 903 L 135.1 904.2 L 145.3 910 L 147.2 911.1 L 153.1 914.5 L 155.1 915.7 L 164.7 921.2 L 166.5 922.2 L 178.6 929.1 L 180.4 930.1 L 185.5 933 L 187.3 934 L 502.3 1114 L 505.8 1116 L 514.5 1121 L 530.7 1130.3 L 538.2 1134.6 L 543.4 1137.6 L 546.7 1139.5 L 549.9 1141.3 C 552.1 1142.6 554.2 1143.8 556.3 1145.2 L 559.5 1147.2 L 562.3 1149 C 565.7 1150.5 567.5 1150.2 571.1 1149.2 C 573.4 1148.2 573.4 1148.2 575.7 1147 L 578.3 1145.6 L 581 1144.1 L 583.9 1142.5 C 592 1138 600 1133.3 607.9 1128.7 L 629.5 1116 L 654 1102 L 681.6 1086.2 L 703 1074 L 730.6 1058.2 L 752 1046 L 779.6 1030.2 L 801 1018 L 828.6 1002.2 L 850 990 L 877.6 974.2 L 899 962 L 926.6 946.2 L 950.9 932.2 L 976.1 918 C 984.8 913.1 993.4 908.1 1002 903 C 1000.8 899.4 1000.2 899.3 996.9 897.6 L 994.3 896.2 L 991.4 894.7 C 983.2 890.3 975.1 885.8 967.1 881.1 L 939.3 865.3 C 933.9 862.3 928.5 859.2 923.2 856 L 919.9 854 L 913.7 850.2 L 910.9 848.5 L 908.4 847 C 905.1 845.8 903.3 846.1 899.9 847.1 C 897.4 848.2 897.4 848.2 894.9 849.8 L 892.1 851.5 L 889.1 853.3 L 882.6 857.2 L 879.2 859.2 C 874 862.3 868.7 865.2 863.4 868.2 L 839 882 L 814.5 896 L 787.2 911.6 L 764.2 924.9 L 762.4 925.9 L 753.5 931 L 737.7 940 L 729 945 L 725.5 947 L 632.7 1000 L 629.2 1002 L 620.5 1007 L 604.3 1016.3 L 596.7 1020.6 L 591.4 1023.6 L 585 1027.3 L 579 1030.8 C 570.1 1036 570.1 1036 565 1035.6 C 560.2 1034.2 556.2 1031.5 552 1028.9 L 545.6 1025 L 542.3 1023 C 537.1 1019.9 531.8 1017 526.5 1014 L 499 998.2 L 477.5 986 L 450.2 970.4 L 427.2 957.1 L 425.4 956.1 L 416.5 951 L 400.7 942 L 392 937 L 388.5 935 L 386.7 934 L 295.7 882 L 292.2 880 L 283.5 875 L 267.3 865.7 L 259.8 861.4 L 254.6 858.4 L 251.3 856.5 L 248.1 854.7 L 241.6 850.9 L 238.4 849 L 235.5 847.2 C 230.6 844.8 227.8 846.3 223.4 848.9 Z"
        fill="#ffffff"/>
</svg>
